<svg width="1148" height="404" viewBox="0 0 1148 404" fill="none" xmlns="http://www.w3.org/2000/svg">
<path d="M202 13C306.382 13 391 97.6182 391 202M391 202L391 391M391 202L13 202M202 183.1C212.438 183.1 220.9 191.562 220.9 202M348.475 202C348.475 121.104 282.896 55.525 202 55.525M305.95 202C305.95 144.59 259.41 98.05 202 98.05M263.425 202C263.425 168.076 235.924 140.575 202 140.575M202 391C97.6182 391 13 306.382 13 202M13 202L13 13M202 220.9C191.562 220.9 183.1 212.438 183.1 202M55.525 202C55.525 282.896 121.104 348.475 202 348.475M98.05 202C98.05 259.41 144.59 305.95 202 305.95M140.575 202C140.575 235.924 168.076 263.425 202 263.425M183.1 13V31.9L202 31.9M202 159.475L55.525 159.475L55.525 13M202 116.95L98.05 116.95L98.05 13M202 74.425H140.575V13M220.9 391V372.1L202 372.1M202 244.525H348.475V391M202 287.05H305.95V391M202 329.575H263.425V391" stroke="white" stroke-width="25"/>
<path d="M483.2 191C471.467 191 460.733 189.067 451 185.2C441.267 181.2 432.867 175.667 425.8 168.6C418.867 161.4 413.467 152.933 409.6 143.2C405.733 133.333 403.8 122.533 403.8 110.8C403.8 99.0667 405.733 88.3333 409.6 78.6C413.467 68.8667 418.867 60.4667 425.8 53.4C432.867 46.2 441.267 40.6667 451 36.8C460.733 32.8 471.467 30.8 483.2 30.8C494.933 30.8 505.6 32.8 515.2 36.8C524.933 40.6667 533.333 46.2 540.4 53.4C547.467 60.4667 552.933 68.8667 556.8 78.6C560.667 88.3333 562.6 99.0667 562.6 110.8C562.6 122.533 560.667 133.333 556.8 143.2C552.933 152.933 547.467 161.4 540.4 168.6C533.333 175.667 524.933 181.2 515.2 185.2C505.6 189.067 494.933 191 483.2 191ZM483.2 172.2C491.867 172.2 499.8 170.667 507 167.6C514.333 164.4 520.667 160.067 526 154.6C531.333 149 535.4 142.467 538.2 135C541.133 127.533 542.6 119.467 542.6 110.8C542.6 102.133 541.133 94.0667 538.2 86.6C535.4 79.1333 531.333 72.6667 526 67.2C520.667 61.6 514.333 57.2667 507 54.2C499.8 51.1333 491.867 49.6 483.2 49.6C474.533 49.6 466.533 51.1333 459.2 54.2C452 57.2667 445.733 61.6 440.4 67.2C435.2 72.6667 431.133 79.1333 428.2 86.6C425.267 94.0667 423.8 102.133 423.8 110.8C423.8 119.467 425.267 127.533 428.2 135C431.133 142.467 435.2 149 440.4 154.6C445.733 160.067 452 164.4 459.2 167.6C466.533 170.667 474.533 172.2 483.2 172.2ZM736.78 189.2C733.846 189.2 731.38 188.267 729.38 186.4C727.513 184.4 726.58 181.933 726.58 179V121.8C726.58 113.4 724.513 107.2 720.38 103.2C716.246 99.0667 710.846 97 704.18 97C697.246 97 691.513 99.4 686.98 104.2C682.58 109 680.38 115.133 680.38 122.6H663.78C663.78 113.933 665.646 106.333 669.38 99.8C673.113 93.1333 678.313 87.9333 684.98 84.2C691.78 80.4667 699.513 78.6 708.18 78.6C715.78 78.6 722.513 80.2667 728.38 83.6C734.246 86.9333 738.78 91.8667 741.98 98.4C745.313 104.8 746.98 112.6 746.98 121.8V179C746.98 181.933 746.046 184.4 744.18 186.4C742.313 188.267 739.846 189.2 736.78 189.2ZM603.38 189.2C600.446 189.2 597.98 188.267 595.98 186.4C594.113 184.4 593.18 181.933 593.18 179V90C593.18 86.9333 594.113 84.4667 595.98 82.6C597.98 80.7333 600.446 79.8 603.38 79.8C606.446 79.8 608.913 80.7333 610.78 82.6C612.646 84.4667 613.58 86.9333 613.58 90V179C613.58 181.933 612.646 184.4 610.78 186.4C608.913 188.267 606.446 189.2 603.38 189.2ZM670.18 189.2C667.246 189.2 664.78 188.267 662.78 186.4C660.913 184.4 659.98 181.933 659.98 179V121.8C659.98 113.4 657.913 107.2 653.78 103.2C649.646 99.0667 644.246 97 637.58 97C630.646 97 624.913 99.4 620.38 104.2C615.846 109 613.58 115.133 613.58 122.6H600.98C600.98 113.933 602.713 106.333 606.18 99.8C609.646 93.1333 614.446 87.9333 620.58 84.2C626.713 80.4667 633.713 78.6 641.58 78.6C649.18 78.6 655.913 80.2667 661.78 83.6C667.646 86.9333 672.18 91.8667 675.38 98.4C678.713 104.8 680.38 112.6 680.38 121.8V179C680.38 181.933 679.446 184.4 677.58 186.4C675.713 188.267 673.246 189.2 670.18 189.2ZM873.275 189.2C870.342 189.2 867.875 188.267 865.875 186.4C864.008 184.4 863.075 181.933 863.075 179V129.8C863.075 122.2 861.675 116 858.875 111.2C856.075 106.4 852.275 102.867 847.475 100.6C842.808 98.2 837.408 97 831.275 97C825.675 97 820.608 98.1333 816.075 100.4C811.542 102.667 807.942 105.733 805.275 109.6C802.608 113.333 801.275 117.667 801.275 122.6H788.675C788.675 114.2 790.675 106.733 794.675 100.2C798.808 93.5333 804.408 88.2667 811.475 84.4C818.542 80.5333 826.475 78.6 835.275 78.6C844.475 78.6 852.675 80.6 859.875 84.6C867.208 88.4667 872.942 94.2 877.075 101.8C881.342 109.4 883.475 118.733 883.475 129.8V179C883.475 181.933 882.475 184.4 880.475 186.4C878.608 188.267 876.208 189.2 873.275 189.2ZM791.075 189.2C788.142 189.2 785.675 188.267 783.675 186.4C781.808 184.4 780.875 181.933 780.875 179V89.8C780.875 86.7333 781.808 84.2667 783.675 82.4C785.675 80.5333 788.142 79.6 791.075 79.6C794.142 79.6 796.608 80.5333 798.475 82.4C800.342 84.2667 801.275 86.7333 801.275 89.8V179C801.275 181.933 800.342 184.4 798.475 186.4C796.608 188.267 794.142 189.2 791.075 189.2ZM968.603 189.8C957.536 189.8 947.67 187.467 939.003 182.8C930.47 178 923.736 171.467 918.803 163.2C914.003 154.8 911.603 145.2 911.603 134.4C911.603 123.467 913.87 113.867 918.403 105.6C923.07 97.2 929.47 90.6667 937.603 86C945.736 81.2 955.07 78.8 965.603 78.8C976.003 78.8 984.936 81.1333 992.403 85.8C999.87 90.3333 1005.54 96.6667 1009.4 104.8C1013.4 112.8 1015.4 122.067 1015.4 132.6C1015.4 135.133 1014.54 137.267 1012.8 139C1011.07 140.6 1008.87 141.4 1006.2 141.4H925.603V125.4H1005.6L997.403 131C997.27 124.333 995.936 118.4 993.403 113.2C990.87 107.867 987.27 103.667 982.603 100.6C977.936 97.5333 972.27 96 965.603 96C958.003 96 951.47 97.6667 946.003 101C940.67 104.333 936.603 108.933 933.803 114.8C931.003 120.533 929.603 127.067 929.603 134.4C929.603 141.733 931.27 148.267 934.603 154C937.936 159.733 942.536 164.267 948.403 167.6C954.27 170.933 961.003 172.6 968.603 172.6C972.736 172.6 976.936 171.867 981.203 170.4C985.603 168.8 989.136 167 991.803 165C993.803 163.533 995.936 162.8 998.203 162.8C1000.6 162.667 1002.67 163.333 1004.4 164.8C1006.67 166.8 1007.87 169 1008 171.4C1008.14 173.8 1007.07 175.867 1004.8 177.6C1000.27 181.2 994.603 184.133 987.803 186.4C981.136 188.667 974.736 189.8 968.603 189.8ZM1081.22 189.8C1071.89 189.8 1063.22 188.4 1055.22 185.6C1047.36 182.667 1041.22 179 1036.82 174.6C1034.82 172.467 1033.96 170.067 1034.22 167.4C1034.62 164.6 1035.96 162.333 1038.22 160.6C1040.89 158.467 1043.49 157.6 1046.02 158C1048.69 158.267 1050.96 159.4 1052.82 161.4C1055.09 163.933 1058.69 166.333 1063.62 168.6C1068.69 170.733 1074.29 171.8 1080.42 171.8C1088.16 171.8 1094.02 170.533 1098.02 168C1102.16 165.467 1104.29 162.2 1104.42 158.2C1104.56 154.2 1102.62 150.733 1098.62 147.8C1094.76 144.867 1087.62 142.467 1077.22 140.6C1063.76 137.933 1053.96 133.933 1047.82 128.6C1041.82 123.267 1038.82 116.733 1038.82 109C1038.82 102.2 1040.82 96.6 1044.82 92.2C1048.82 87.6667 1053.96 84.3333 1060.22 82.2C1066.49 79.9333 1073.02 78.8 1079.82 78.8C1088.62 78.8 1096.42 80.2 1103.22 83C1110.02 85.8 1115.42 89.6667 1119.42 94.6C1121.29 96.7333 1122.16 99 1122.02 101.4C1121.89 103.667 1120.76 105.6 1118.62 107.2C1116.49 108.667 1113.96 109.133 1111.02 108.6C1108.09 108.067 1105.62 106.867 1103.62 105C1100.29 101.8 1096.69 99.6 1092.82 98.4C1088.96 97.2 1084.49 96.6 1079.42 96.6C1073.56 96.6 1068.56 97.6 1064.42 99.6C1060.42 101.6 1058.42 104.533 1058.42 108.4C1058.42 110.8 1059.02 113 1060.22 115C1061.56 116.867 1064.09 118.6 1067.82 120.2C1071.56 121.667 1077.02 123.133 1084.22 124.6C1094.22 126.6 1102.09 129.133 1107.82 132.2C1113.69 135.267 1117.89 138.867 1120.42 143C1122.96 147 1124.22 151.667 1124.22 157C1124.22 163.133 1122.56 168.667 1119.22 173.6C1116.02 178.533 1111.22 182.467 1104.82 185.4C1098.56 188.333 1090.69 189.8 1081.22 189.8Z" fill="white"/>
<path d="M479.4 355.6C472.573 355.6 466.227 354.64 460.36 352.72C454.6 350.693 449.587 347.867 445.32 344.24C441.053 340.613 437.8 336.4 435.56 331.6C434.707 329.893 434.653 328.347 435.4 326.96C436.253 325.467 437.64 324.453 439.56 323.92C441.053 323.493 442.493 323.653 443.88 324.4C445.373 325.147 446.493 326.267 447.24 327.76C448.84 330.853 451.187 333.627 454.28 336.08C457.373 338.533 461.053 340.453 465.32 341.84C469.587 343.12 474.28 343.76 479.4 343.76C485.053 343.76 490.067 342.853 494.44 341.04C498.813 339.12 502.227 336.4 504.68 332.88C507.24 329.253 508.52 324.88 508.52 319.76C508.52 313.253 506.12 307.653 501.32 302.96C496.52 298.267 489 295.28 478.76 294C466.28 292.507 456.52 288.667 449.48 282.48C442.44 276.187 438.92 268.507 438.92 259.44C438.92 252.933 440.627 247.28 444.04 242.48C447.56 237.68 452.36 234 458.44 231.44C464.52 228.773 471.507 227.44 479.4 227.44C485.267 227.44 490.6 228.4 495.4 230.32C500.2 232.133 504.36 234.587 507.88 237.68C511.507 240.667 514.44 243.973 516.68 247.6C517.747 249.307 518.067 250.96 517.64 252.56C517.32 254.16 516.413 255.387 514.92 256.24C513.32 256.987 511.667 257.093 509.96 256.56C508.36 256.027 507.133 255.013 506.28 253.52C504.68 251.067 502.653 248.773 500.2 246.64C497.853 244.4 494.973 242.64 491.56 241.36C488.147 240.08 484.04 239.387 479.24 239.28C470.813 239.28 464.04 241.093 458.92 244.72C453.8 248.24 451.24 253.413 451.24 260.24C451.24 263.867 452.2 267.227 454.12 270.32C456.04 273.307 459.187 275.92 463.56 278.16C468.04 280.293 474.013 281.893 481.48 282.96C494.813 284.88 504.68 288.987 511.08 295.28C517.587 301.467 520.84 309.573 520.84 319.6C520.84 325.36 519.773 330.48 517.64 334.96C515.613 339.44 512.68 343.227 508.84 346.32C505.107 349.307 500.68 351.6 495.56 353.2C490.547 354.8 485.16 355.6 479.4 355.6ZM551.578 391.44C549.658 391.44 548.111 390.853 546.938 389.68C545.871 388.613 545.338 387.12 545.338 385.2V309.68C545.444 301.36 547.418 293.893 551.258 287.28C555.204 280.56 560.484 275.28 567.098 271.44C573.818 267.6 581.338 265.68 589.658 265.68C598.191 265.68 605.818 267.653 612.538 271.6C619.258 275.44 624.538 280.72 628.378 287.44C632.324 294.16 634.298 301.787 634.298 310.32C634.298 318.747 632.378 326.32 628.538 333.04C624.804 339.76 619.684 345.093 613.177 349.04C606.671 352.88 599.311 354.8 591.098 354.8C583.951 354.8 577.444 353.307 571.578 350.32C565.818 347.227 561.178 343.173 557.658 338.16V385.2C557.658 387.12 557.071 388.613 555.898 389.68C554.831 390.853 553.391 391.44 551.578 391.44ZM589.658 343.6C595.844 343.6 601.391 342.16 606.298 339.28C611.204 336.4 615.044 332.453 617.818 327.44C620.698 322.32 622.138 316.613 622.138 310.32C622.138 303.92 620.698 298.213 617.818 293.2C615.044 288.187 611.204 284.24 606.298 281.36C601.391 278.373 595.844 276.88 589.658 276.88C583.578 276.88 578.084 278.373 573.177 281.36C568.271 284.24 564.431 288.187 561.658 293.2C558.884 298.213 557.498 303.92 557.498 310.32C557.498 316.613 558.884 322.32 561.658 327.44C564.431 332.453 568.271 336.4 573.177 339.28C578.084 342.16 583.578 343.6 589.658 343.6ZM698.303 354.8C689.769 354.8 682.143 352.88 675.423 349.04C668.703 345.2 663.423 339.92 659.583 333.2C655.743 326.48 653.823 318.853 653.823 310.32C653.823 301.68 655.743 294 659.583 287.28C663.423 280.56 668.703 275.28 675.423 271.44C682.143 267.6 689.769 265.68 698.303 265.68C706.836 265.68 714.409 267.6 721.023 271.44C727.743 275.28 733.023 280.56 736.863 287.28C740.703 294 742.676 301.68 742.783 310.32C742.783 318.853 740.809 326.48 736.863 333.2C733.023 339.92 727.743 345.2 721.023 349.04C714.409 352.88 706.836 354.8 698.303 354.8ZM698.303 343.6C704.489 343.6 710.036 342.16 714.943 339.28C719.849 336.4 723.689 332.453 726.463 327.44C729.236 322.427 730.623 316.72 730.623 310.32C730.623 303.92 729.236 298.213 726.463 293.2C723.689 288.08 719.849 284.08 714.943 281.2C710.036 278.32 704.489 276.88 698.303 276.88C692.116 276.88 686.569 278.32 681.663 281.2C676.756 284.08 672.863 288.08 669.983 293.2C667.209 298.213 665.823 303.92 665.823 310.32C665.823 316.72 667.209 322.427 669.983 327.44C672.863 332.453 676.756 336.4 681.663 339.28C686.569 342.16 692.116 343.6 698.303 343.6ZM771.864 300.08C772.184 293.467 773.89 287.547 776.984 282.32C780.184 277.093 784.29 272.987 789.304 270C794.424 267.013 800.077 265.52 806.264 265.52C811.17 265.52 814.957 266.213 817.624 267.6C820.29 268.987 821.304 271.013 820.664 273.68C820.237 275.28 819.49 276.347 818.424 276.88C817.464 277.413 816.237 277.627 814.744 277.52C813.357 277.413 811.757 277.307 809.944 277.2C803.97 276.667 798.637 277.307 793.944 279.12C789.357 280.827 785.677 283.493 782.904 287.12C780.237 290.747 778.904 295.067 778.904 300.08H771.864ZM772.824 354C770.904 354 769.41 353.467 768.344 352.4C767.277 351.333 766.744 349.84 766.744 347.92V272.56C766.744 270.64 767.277 269.147 768.344 268.08C769.41 267.013 770.904 266.48 772.824 266.48C774.744 266.48 776.237 267.013 777.304 268.08C778.37 269.147 778.904 270.64 778.904 272.56V347.92C778.904 349.84 778.37 351.333 777.304 352.4C776.237 353.467 774.744 354 772.824 354ZM874.265 354C868.612 354 863.545 352.667 859.065 350C854.692 347.333 851.225 343.707 848.665 339.12C846.105 334.427 844.825 329.093 844.825 323.12V244.88C844.825 243.067 845.358 241.573 846.425 240.4C847.598 239.227 849.092 238.64 850.905 238.64C852.718 238.64 854.212 239.227 855.385 240.4C856.558 241.573 857.145 243.067 857.145 244.88V323.12C857.145 328.56 858.745 333.04 861.945 336.56C865.145 339.973 869.252 341.68 874.265 341.68H878.585C880.292 341.68 881.678 342.267 882.745 343.44C883.812 344.613 884.345 346.107 884.345 347.92C884.345 349.733 883.705 351.227 882.425 352.4C881.145 353.467 879.545 354 877.625 354H874.265ZM834.425 280.4C832.825 280.4 831.492 279.92 830.425 278.96C829.358 277.893 828.825 276.613 828.825 275.12C828.825 273.52 829.358 272.24 830.425 271.28C831.492 270.213 832.825 269.68 834.425 269.68H875.225C876.825 269.68 878.158 270.213 879.225 271.28C880.292 272.24 880.825 273.52 880.825 275.12C880.825 276.613 880.292 277.893 879.225 278.96C878.158 279.92 876.825 280.4 875.225 280.4H834.425Z" fill="white"/>
</svg>
