<svg width="404" height="404" viewBox="0 0 404 404" fill="none" xmlns="http://www.w3.org/2000/svg">
<path d="M202 13C306.382 13 391 97.6182 391 202M391 202L391 391M391 202L13 202M202 183.1C212.438 183.1 220.9 191.562 220.9 202M348.475 202C348.475 121.104 282.896 55.525 202 55.525M305.95 202C305.95 144.59 259.41 98.05 202 98.05M263.425 202C263.425 168.076 235.924 140.575 202 140.575M202 391C97.6182 391 13 306.382 13 202M13 202L13 13M202 220.9C191.562 220.9 183.1 212.438 183.1 202M55.525 202C55.525 282.896 121.104 348.475 202 348.475M98.05 202C98.05 259.41 144.59 305.95 202 305.95M140.575 202C140.575 235.924 168.076 263.425 202 263.425M183.1 13V31.9L202 31.9M202 159.475L55.525 159.475L55.525 13M202 116.95L98.05 116.95L98.05 13M202 74.425H140.575V13M220.9 391V372.1L202 372.1M202 244.525H348.475V391M202 287.05H305.95V391M202 329.575H263.425V391" stroke="white" stroke-width="25"/>
</svg>
